<svg width="1536" height="316" viewBox="0 0 1536 316" fill="none" xmlns="http://www.w3.org/2000/svg">
<rect width="1536" height="316" fill="#060606"/>
<path d="M225.492 50.9453C229.81 54.4831 233.945 58.164 238 62C238.897 62.8211 239.794 63.6422 240.719 64.4882C248.18 71.5616 253.726 79.217 259 88C259.367 88.6086 259.735 89.2172 260.114 89.8442C277.154 118.559 281.814 154.888 274.258 187.277C268.361 210.188 257.369 231.731 241 249C240.34 249 239.68 249 239 249C239 249.66 239 250.32 239 251C218.878 272.364 188.481 285.037 159.437 286.379C127.37 287.228 97.5773 277.996 72.9998 257C72.0356 256.187 71.0714 255.373 70.0779 254.535C45.2069 232.79 29.6016 200.892 26.9998 168C26.3297 153.761 26.7622 139.904 29.9998 126C30.1554 125.315 30.3111 124.629 30.4715 123.923C37.9353 92.3245 57.8269 64.4038 85.1248 46.875C128.383 21.5542 184.363 19.3928 225.492 50.9453ZM125 52C123.178 52.493 123.178 52.493 121.32 52.9961C94.668 61.0028 73.5345 79.9705 60.3748 104.187C45.9857 131.656 44.5214 162.985 53.4568 192.504C62.328 219.644 82.4462 241.966 107.596 254.993C121.677 261.958 135.984 265.393 151.687 265.312C152.836 265.307 153.985 265.301 155.169 265.295C183.403 264.893 206.598 252.972 226.527 233.535C250.262 208.466 257.014 178.245 256.179 144.618C255.807 137.114 254.363 130.116 252 123C251.785 122.351 251.571 121.702 251.35 121.033C241.712 92.8976 221.799 70.9678 195.314 57.7526C173.882 47.6716 147.761 45.5967 125 52Z" fill="#7AEB51"/>
<path d="M889 67C986.084 67 986.084 67 999.844 80.5586C1007.68 89.4262 1011.85 100.675 1011.35 112.621C1009.46 125.507 1004.06 133.878 994.391 142.234C990.858 144.843 987.117 146.521 983 148C983.75 148.291 984.5 148.583 985.273 148.883C998.475 154.17 1010.2 160.376 1016.26 173.984C1020.72 186.098 1020.23 199.2 1014.94 210.938C1008.7 222.69 998.996 230.256 986.848 235.141C955.609 244.568 921.63 238 889 238C889 181.57 889 125.14 889 67ZM918 90C918 106.5 918 123 918 140C922.991 140.041 927.983 140.082 933.125 140.125C934.668 140.143 936.211 140.161 937.801 140.18C955.687 140.404 955.687 140.404 972 134C972.908 133.402 973.815 132.804 974.75 132.188C980.054 127.031 982.113 121.095 982.312 113.812C982.237 107.515 980.832 102.264 976.645 97.4375C968.926 90.4846 960.116 89.8455 950.324 89.9023C949.504 89.9034 948.683 89.9044 947.838 89.9054C944.788 89.9106 941.737 89.9246 938.688 89.9375C928.447 89.9684 928.447 89.9684 918 90ZM918 162C918 179.49 918 196.98 918 215C929.107 215.062 929.107 215.062 940.438 215.125C942.757 215.143 945.077 215.161 947.467 215.18C949.331 215.186 951.195 215.191 953.059 215.195C954.479 215.211 954.479 215.211 955.929 215.226C966.182 215.229 974.821 213.523 983 207C989.123 199.588 989.611 192.374 989 183C987.881 177.536 985.294 172.617 981 169C971.664 163.097 962.362 161.682 951.496 161.805C950.64 161.807 949.784 161.809 948.902 161.811C945.747 161.821 942.592 161.849 939.438 161.875C928.826 161.937 928.826 161.937 918 162Z" fill="#F7F7F7"/>
<path d="M333 67C342.57 67 352.14 67 362 67C363.46 69.9208 363.119 72.483 363.114 75.7446C363.114 76.4486 363.114 77.1526 363.114 77.878C363.113 80.1609 363.106 82.4437 363.098 84.7266C363.096 86.1344 363.095 87.5422 363.095 88.95C363.089 94.175 363.075 99.4 363.062 104.625C363.042 116.299 363.021 127.972 363 140C390.06 140 417.12 140 445 140C445 115.91 445 91.82 445 67C454.57 67 464.14 67 474 67C474 123.43 474 179.86 474 238C464.43 238 454.86 238 445 238C445 214.24 445 190.48 445 166C417.61 166 390.22 166 362 166C362.33 189.76 362.66 213.52 363 238C353.1 238 343.2 238 333 238C333 181.57 333 125.14 333 67Z" fill="#F7F7F7"/>
<path d="M751 64C760.24 64 769.48 64 779 64C779.33 85.45 779.66 106.9 780 129C782.31 126.03 784.62 123.06 787 120C796.912 110.633 808.406 107.386 821.757 107.597C834.122 108.093 845.167 111.527 853.812 120.75C865.171 134.862 865.434 150.819 865.293 168.078C865.287 170.101 865.283 172.124 865.28 174.147C865.269 179.434 865.239 184.721 865.206 190.008C865.175 195.418 865.162 200.828 865.146 206.238C865.114 216.826 865.062 227.413 865 238C855.76 238 846.52 238 837 238C836.985 235.533 836.971 233.066 836.956 230.524C836.905 222.349 836.839 214.175 836.764 206.001C836.72 201.047 836.68 196.094 836.654 191.14C836.627 186.355 836.587 181.57 836.537 176.785C836.52 174.964 836.509 173.144 836.502 171.323C836.493 168.762 836.465 166.202 836.432 163.641C836.434 162.897 836.435 162.153 836.437 161.387C836.299 153.567 834.086 146.048 829 140C820.906 133.725 813.03 133.347 803 134C797.071 135.101 791.515 136.905 787 141C779.547 152.501 779.676 164.75 779.586 177.941C779.567 179.677 779.548 181.413 779.527 183.149C779.476 187.691 779.436 192.234 779.399 196.776C779.359 201.422 779.308 206.067 779.258 210.713C779.161 219.809 779.078 228.904 779 238C769.76 238 760.52 238 751 238C751 180.58 751 123.16 751 64Z" fill="#F7F7F7"/>
<path d="M593 118C601.494 124.772 606.014 133.376 608 144C608.258 147.183 608.254 150.345 608.227 153.537C608.227 154.455 608.228 155.373 608.228 156.319C608.227 159.327 608.211 162.336 608.195 165.344C608.192 167.44 608.189 169.536 608.187 171.632C608.179 177.13 608.16 182.627 608.137 188.124C608.117 193.742 608.108 199.359 608.098 204.977C608.076 215.985 608.041 226.992 608 238C599.09 238 590.18 238 581 238C580.67 232.39 580.34 226.78 580 221C579.051 222.176 578.103 223.351 577.125 224.563C568.854 233.928 558.771 239.595 546.211 240.379C532.745 240.857 520.545 239.105 510 230C502.344 222.085 498.471 213.067 497.906 202.086C498.255 190.592 502.573 183.061 510.688 175.313C520.729 166.919 532.99 164.94 545.625 163.875C546.605 163.79 547.586 163.705 548.596 163.618C559.393 162.765 570.178 162.803 581 163C581.145 149.4 581.145 149.4 575.68 137.488C569.127 131.501 561.354 131.478 552.996 131.688C546.429 132.059 540.541 133.869 536.062 138.875C533.663 142.375 533.663 142.375 531 148C521.76 148 512.52 148 503 148C504.455 136.364 509.063 126.8 518 119C539.259 104.122 571.345 102.764 593 118ZM530 189C525.935 194.242 526.249 199.636 527 206C528.69 211.366 532.095 214.403 537 217C545.314 220.261 554.276 219.908 562.652 217.028C571.998 212.938 576.611 205.863 580.375 196.625C581.274 191.41 581.156 186.278 581 181C554.149 179.786 554.149 179.786 530 189Z" fill="#F7F7F7"/>
<path d="M1128.21 119.59C1140.5 129.595 1146.12 143.834 1149 159C1149.19 159.934 1149.37 160.869 1149.56 161.832C1152.22 181.051 1149.39 201.602 1138.25 217.75C1129.15 229.527 1116.96 237.861 1102 240C1098.04 240.286 1094.1 240.325 1090.12 240.312C1088.61 240.337 1088.61 240.337 1087.06 240.361C1071.93 240.371 1058.21 234.984 1047.25 224.476C1032.6 208.355 1028.9 187.519 1029.83 166.493C1030.97 149.652 1037.29 133.439 1050 122C1050.5 121.52 1051 121.041 1051.51 120.547C1072.09 101.554 1106.56 104.022 1128.21 119.59ZM1073 135C1072.37 135.412 1071.73 135.825 1071.08 136.25C1063.41 142.02 1060.39 151.07 1058.5 160.18C1056.32 176.717 1057.15 193.95 1067 208C1072.76 214.473 1079.81 217.394 1088.39 217.992C1097.93 218.021 1104.76 214.771 1111.75 208.402C1121.33 198.253 1122.59 183.374 1122.25 170.066C1121.67 157.914 1118.7 146.108 1109.69 137.562C1099.37 129.201 1084.48 127.532 1073 135Z" fill="#F7F7F7"/>
<path d="M1249.41 116.133C1262.97 125.918 1271.34 139.697 1274.37 156.078C1277.8 179.365 1274.93 201.704 1260.87 220.914C1251.97 231.467 1239.73 238.281 1226 240C1208.2 240.985 1191.83 239.888 1177.81 227.75C1163.35 214.009 1157.05 197.173 1156.52 177.409C1156.38 157.062 1160.09 138.22 1174.75 123.113C1194.36 104.668 1226.32 102.196 1249.41 116.133ZM1194.89 138.781C1185.44 149.867 1183.2 164.979 1184.25 179.074C1185.34 190.427 1187.7 201.646 1196 210C1204.82 217.026 1211.82 217.666 1223 217C1230.59 215.662 1236.28 210.728 1240.73 204.625C1249.58 189.947 1249.89 171.524 1245.98 155.234C1243.33 146.527 1239.5 138.848 1231.44 134.25C1219.4 127.834 1204.84 129.54 1194.89 138.781Z" fill="#F7F7F7"/>
<path d="M718.875 119.75C724.574 125.059 728.536 132.386 730 140C730 141.98 730 143.96 730 146C721.09 146 712.18 146 703 146C702.01 143.03 701.02 140.06 700 137C694.74 131.507 689.464 129.785 681.934 129.568C670.628 129.526 670.628 129.526 661 135C658.413 139.157 658 142.916 658 147.75C659.22 151.714 660.534 153.829 664 156C673.887 160.524 684.005 162.67 694.627 164.672C706.877 167.11 719.483 170.829 727.609 180.902C732.908 188.895 734.102 197.602 733 207C730.576 218.316 723.506 227.192 713.91 233.465C706.109 237.58 696.873 240.762 688 241C686.928 241.05 685.855 241.101 684.75 241.152C667.637 241.598 650.905 238.777 637.938 226.688C630.949 219.024 629.046 212.229 627 202C635.91 202 644.82 202 654 202C655.32 205.3 656.64 208.6 658 212C662.451 216.822 668.895 219.057 675.367 219.434C676.87 219.457 678.373 219.458 679.875 219.438C680.661 219.431 681.448 219.424 682.258 219.417C689.834 219.208 696.065 217.935 701.562 212.438C704.143 208.062 704.508 203.983 704 199C702.34 194.435 699.636 193.033 695.363 190.968C691.202 189.264 686.892 188.405 682.5 187.5C680.544 187.073 678.588 186.644 676.633 186.215C674.755 185.81 672.878 185.405 671 185C655.656 181.684 641.692 177.57 632.559 163.832C628.338 155.288 628.804 144.146 630.59 134.969C633.841 125.5 640.975 118.72 649.625 114.063C671.311 104.197 699.562 104.865 718.875 119.75Z" fill="#F7F7F7"/>
<path d="M1355.65 115.219C1364.44 121.875 1369.44 130.538 1371.69 141.301C1371.84 142.637 1371.84 142.637 1372 144C1371 145 1371 145 1368.68 145.114C1367.68 145.108 1366.68 145.103 1365.65 145.098C1364.57 145.095 1363.49 145.091 1362.38 145.088C1361.24 145.08 1360.11 145.071 1358.94 145.063C1357.8 145.058 1356.66 145.054 1355.48 145.049C1352.65 145.037 1349.83 145.021 1347 145C1346.73 144.379 1346.47 143.757 1346.19 143.117C1345.66 141.897 1345.66 141.897 1345.12 140.653C1344.77 139.846 1344.42 139.038 1344.06 138.207C1342.22 134.363 1340.18 132.564 1336.38 130.75C1329.11 129.136 1321.54 129.04 1315 133C1311.58 136.506 1310.74 139.298 1310.56 144.063C1310.78 148.218 1311.01 150.918 1314 154C1322.17 158.99 1330.98 161.031 1340.19 163.229C1352.14 166.233 1362.99 170.379 1370 181C1375.11 190.15 1375.51 201.087 1373.3 211.188C1370.03 221.084 1363.61 229.379 1354.43 234.41C1340.99 240.839 1325.31 242.452 1310.88 238.375C1300.41 234.59 1291.37 227.977 1286.19 218C1283.5 212.184 1282 207.501 1282 201C1290.25 201 1298.5 201 1307 201C1308.32 203.97 1309.64 206.94 1311 210C1314.94 214.77 1318.73 217.65 1324.99 218.321C1331.61 218.55 1337.81 218.549 1343 214C1346.53 209.364 1347.75 204.82 1347 199C1345.14 193.74 1342.73 191.797 1338 189C1334.84 187.853 1334.84 187.853 1331.49 187.071C1330.26 186.75 1329.02 186.429 1327.75 186.098C1325.19 185.455 1322.63 184.815 1320.07 184.176C1307.76 180.971 1295.36 176.926 1288.5 165.508C1283.12 155.229 1282.24 143.989 1285.44 132.75C1289.33 122.514 1297.28 115.611 1307 111C1308.07 110.492 1308.07 110.492 1309.15 109.973C1323.62 104.454 1342.86 106.938 1355.65 115.219Z" fill="#F7F7F7"/>
<path d="M161 77C163.688 78.4375 163.688 78.4375 166 80C165.483 86.9056 164.358 93.4245 162.68 100.137C162.223 102.032 161.766 103.927 161.309 105.822C160.592 108.766 159.87 111.709 159.142 114.65C158.436 117.518 157.744 120.389 157.055 123.262C156.834 124.135 156.614 125.008 156.386 125.907C155.17 131.016 154.882 134.853 156 140C156.557 140.006 157.115 140.012 157.689 140.018C163.48 140.082 169.271 140.166 175.062 140.262C177.224 140.296 179.386 140.324 181.548 140.346C184.654 140.38 187.758 140.432 190.864 140.488C191.832 140.495 192.801 140.501 193.799 140.508C194.7 140.527 195.601 140.547 196.529 140.568C197.322 140.579 198.114 140.59 198.931 140.601C201.513 141.099 202.44 141.913 204 144C203.79 147.989 202.191 150.65 200.008 153.922C199.391 154.856 198.774 155.791 198.138 156.753C197.474 157.742 196.81 158.731 196.125 159.75C194.747 161.831 193.37 163.911 191.993 165.992C191.312 167.015 190.631 168.039 189.929 169.093C187.337 173 184.789 176.934 182.25 180.875C181.364 182.248 180.477 183.62 179.59 184.992C179.161 185.657 178.731 186.322 178.289 187.007C177.008 188.988 175.725 190.967 174.442 192.945C173.565 194.297 172.689 195.648 171.813 197C171.158 198.011 171.158 198.011 170.489 199.042C167.618 203.478 164.767 207.927 161.926 212.383C161.572 212.939 161.217 213.494 160.852 214.067C159.089 216.83 157.328 219.593 155.57 222.359C145.819 237.649 145.819 237.649 142.375 239.125C140 239 140 239 138.341 237.777C136.119 234.832 137.063 232.246 137.531 228.749C138.272 224.405 139.232 220.141 140.286 215.863C140.738 213.968 141.19 212.073 141.643 210.178C142.354 207.235 143.068 204.292 143.783 201.35C144.478 198.481 145.163 195.61 145.848 192.738C146.064 191.865 146.279 190.992 146.501 190.093C147.648 185.27 148.331 180.961 148 176C146.478 174.477 145.111 174.853 142.987 174.826C142.136 174.813 141.285 174.799 140.408 174.786C139.019 174.77 139.019 174.77 137.602 174.754C135.659 174.721 133.716 174.688 131.774 174.654C128.697 174.607 125.62 174.562 122.543 174.523C119.583 174.484 116.624 174.432 113.664 174.379C112.742 174.37 111.821 174.362 110.871 174.353C110.013 174.337 109.156 174.32 108.272 174.303C107.518 174.293 106.764 174.282 105.987 174.272C104 174 104 174 101 172C99.8943 166.127 102.754 162.478 105.875 157.812C106.663 156.599 106.663 156.599 107.467 155.362C109.294 152.562 111.144 149.78 113 147C113.712 145.933 114.424 144.866 115.158 143.767C120.569 135.665 120.569 135.665 123.241 131.681C128.442 123.928 133.484 116.107 138.29 108.102C141.937 102.042 145.807 96.1543 149.774 90.3008C152.165 86.7552 154.474 83.1618 156.746 79.5391C158 78 158 78 161 77Z" fill="#7AEB51"/>
<path d="M1394 80C1402.58 80 1411.16 80 1420 80C1420 90.23 1420 100.46 1420 111C1428.58 111 1437.16 111 1446 111C1446 117.93 1446 124.86 1446 132C1437.42 132 1428.84 132 1420 132C1420.09 140.858 1420.18 149.717 1420.29 158.575C1420.34 162.689 1420.38 166.803 1420.42 170.917C1420.46 174.891 1420.51 178.866 1420.56 182.84C1420.58 184.352 1420.59 185.864 1420.6 187.376C1420.2 200.472 1420.2 200.472 1425.44 211.938C1429.58 215.269 1433.59 215.272 1438.69 215.562C1441.1 215.707 1443.51 215.851 1446 216C1446 223.59 1446 231.18 1446 239C1418.69 239.455 1418.69 239.455 1410 236C1409.32 235.733 1408.65 235.466 1407.95 235.191C1402.27 232.457 1398.7 227.635 1396.09 222.05C1393.06 213.28 1393.62 204.238 1393.71 195.086C1393.71 193.262 1393.72 191.438 1393.72 189.613C1393.73 184.843 1393.76 180.072 1393.79 175.301C1393.82 170.421 1393.84 165.541 1393.85 160.66C1393.89 151.107 1393.94 141.553 1394 132C1388.72 132 1383.44 132 1378 132C1378 125.07 1378 118.14 1378 111C1383.28 111 1388.56 111 1394 111C1394 100.77 1394 90.54 1394 80Z" fill="#F7F7F7"/>
</svg>
