<svg width="460" height="460" viewBox="0 0 460 460" fill="none" xmlns="http://www.w3.org/2000/svg">
<rect width="460" height="460" fill="#060606"/>
<path d="M270.576 208.55C293.361 208.55 293.361 208.55 296.591 211.732C298.429 213.814 299.409 216.454 299.29 219.257C298.848 222.282 297.581 224.246 295.311 226.207C294.482 226.82 293.604 227.213 292.637 227.56C292.813 227.629 292.99 227.697 293.171 227.768C296.269 229.009 299.022 230.465 300.443 233.659C301.49 236.502 301.375 239.577 300.133 242.332C298.67 245.09 296.391 246.865 293.54 248.012C286.209 250.224 278.234 248.683 270.576 248.683C270.576 235.439 270.576 222.195 270.576 208.55ZM277.382 213.948C277.382 217.821 277.382 221.693 277.382 225.683C278.554 225.693 279.725 225.702 280.932 225.712C281.294 225.717 281.656 225.721 282.03 225.725C286.227 225.778 286.227 225.778 290.056 224.275C290.269 224.134 290.482 223.994 290.701 223.849C291.946 222.639 292.429 221.246 292.476 219.537C292.458 218.059 292.129 216.827 291.146 215.694C289.334 214.062 287.267 213.912 284.969 213.925C284.776 213.926 284.583 213.926 284.385 213.926C283.669 213.927 282.953 213.931 282.238 213.934C279.834 213.941 279.834 213.941 277.382 213.948ZM277.382 230.846C277.382 234.951 277.382 239.056 277.382 243.285C279.989 243.3 279.989 243.3 282.648 243.314C283.193 243.319 283.737 243.323 284.298 243.327C284.735 243.329 285.173 243.33 285.61 243.331C285.944 243.334 285.944 243.334 286.284 243.338C288.69 243.339 290.718 242.938 292.637 241.407C294.075 239.668 294.189 237.975 294.046 235.775C293.783 234.492 293.176 233.338 292.168 232.489C289.977 231.104 287.794 230.772 285.244 230.8C285.043 230.801 284.842 230.801 284.635 230.802C283.894 230.804 283.154 230.811 282.414 230.817C279.923 230.831 279.923 230.831 277.382 230.846Z" fill="#F7F7F7"/>
<path d="M140.087 208.55C142.333 208.55 144.579 208.55 146.893 208.55C147.236 209.236 147.156 209.837 147.154 210.603C147.154 210.768 147.154 210.933 147.154 211.103C147.154 211.639 147.152 212.175 147.151 212.711C147.15 213.041 147.15 213.371 147.15 213.702C147.149 214.928 147.145 216.154 147.142 217.381C147.138 220.12 147.133 222.86 147.128 225.683C153.479 225.683 159.829 225.683 166.373 225.683C166.373 220.029 166.373 214.375 166.373 208.55C168.619 208.55 170.865 208.55 173.179 208.55C173.179 221.794 173.179 235.038 173.179 248.683C170.933 248.683 168.687 248.683 166.373 248.683C166.373 243.107 166.373 237.53 166.373 231.785C159.944 231.785 153.516 231.785 146.893 231.785C146.97 237.361 147.048 242.938 147.128 248.683C144.804 248.683 142.481 248.683 140.087 248.683C140.087 235.439 140.087 222.195 140.087 208.55Z" fill="#F7F7F7"/>
<path d="M238.188 207.846C240.357 207.846 242.526 207.846 244.76 207.846C244.837 212.88 244.915 217.915 244.995 223.101C245.537 222.404 246.079 221.707 246.637 220.989C248.964 218.791 251.661 218.029 254.795 218.078C257.697 218.194 260.289 219 262.318 221.165C264.984 224.477 265.046 228.222 265.012 232.273C265.011 232.747 265.01 233.222 265.009 233.697C265.007 234.938 265 236.179 264.992 237.42C264.985 238.689 264.981 239.959 264.978 241.229C264.97 243.713 264.958 246.198 264.944 248.683C262.775 248.683 260.606 248.683 258.372 248.683C258.369 248.104 258.365 247.525 258.362 246.928C258.35 245.01 258.334 243.091 258.317 241.173C258.306 240.01 258.297 238.848 258.291 237.685C258.285 236.562 258.275 235.439 258.263 234.316C258.26 233.889 258.257 233.462 258.255 233.034C258.253 232.433 258.246 231.832 258.239 231.231C258.239 231.057 258.24 230.882 258.24 230.702C258.208 228.867 257.688 227.102 256.495 225.683C254.595 224.21 252.747 224.121 250.393 224.275C249.001 224.533 247.697 224.957 246.637 225.918C244.888 228.617 244.919 231.492 244.897 234.588C244.893 234.995 244.888 235.402 244.884 235.81C244.872 236.876 244.862 237.942 244.854 239.008C244.844 240.098 244.832 241.189 244.82 242.279C244.798 244.413 244.778 246.548 244.76 248.683C242.591 248.683 240.423 248.683 238.188 248.683C238.188 235.207 238.188 221.731 238.188 207.846Z" fill="#F7F7F7"/>
<path d="M201.107 220.52C203.101 222.109 204.161 224.128 204.627 226.622C204.688 227.369 204.687 228.111 204.681 228.86C204.681 229.075 204.681 229.291 204.681 229.513C204.681 230.219 204.677 230.925 204.673 231.631C204.672 232.123 204.672 232.615 204.671 233.107C204.669 234.397 204.665 235.687 204.66 236.977C204.655 238.296 204.653 239.614 204.65 240.932C204.645 243.516 204.637 246.099 204.627 248.683C202.536 248.683 200.445 248.683 198.291 248.683C198.213 247.366 198.136 246.05 198.056 244.693C197.833 244.969 197.611 245.245 197.381 245.529C195.44 247.727 193.074 249.057 190.126 249.241C186.966 249.353 184.102 248.942 181.627 246.805C179.83 244.948 178.922 242.831 178.789 240.254C178.871 237.556 179.884 235.789 181.789 233.97C184.145 232.001 187.023 231.536 189.988 231.286C190.218 231.266 190.449 231.246 190.686 231.226C193.22 231.026 195.751 231.035 198.291 231.081C198.325 227.889 198.325 227.889 197.042 225.093C195.504 223.688 193.68 223.683 191.718 223.732C190.177 223.819 188.795 224.244 187.744 225.419C187.181 226.24 187.181 226.24 186.556 227.56C184.387 227.56 182.219 227.56 179.985 227.56C180.326 224.829 181.407 222.585 183.505 220.754C188.494 217.262 196.025 216.944 201.107 220.52ZM186.321 237.183C185.367 238.413 185.441 239.679 185.617 241.173C186.014 242.432 186.813 243.145 187.964 243.754C189.915 244.519 192.019 244.437 193.985 243.761C196.178 242.801 197.261 241.14 198.144 238.972C198.355 237.748 198.327 236.544 198.291 235.305C191.989 235.02 191.989 235.02 186.321 237.183Z" fill="#F7F7F7"/>
<path d="M326.717 220.893C329.601 223.241 330.92 226.583 331.596 230.142C331.64 230.361 331.683 230.581 331.728 230.807C332.351 235.317 331.688 240.141 329.073 243.93C326.937 246.694 324.076 248.65 320.566 249.152C319.636 249.219 318.711 249.229 317.779 249.226C317.422 249.231 317.422 249.231 317.059 249.237C313.508 249.239 310.289 247.975 307.716 245.509C304.279 241.725 303.41 236.835 303.628 231.901C303.895 227.948 305.379 224.143 308.362 221.458C308.479 221.346 308.596 221.233 308.716 221.117C313.545 216.66 321.636 217.239 326.717 220.893ZM313.76 224.509C313.611 224.606 313.462 224.703 313.308 224.803C311.508 226.157 310.8 228.281 310.357 230.419C309.845 234.3 310.039 238.345 312.351 241.642C313.703 243.161 315.358 243.847 317.372 243.987C319.61 243.994 321.214 243.231 322.855 241.736C325.102 239.354 325.398 235.862 325.318 232.739C325.183 229.887 324.485 227.116 322.37 225.111C319.948 223.148 316.454 222.757 313.76 224.509Z" fill="#F7F7F7"/>
<path d="M355.163 220.082C358.343 222.378 360.308 225.612 361.021 229.457C361.826 234.922 361.151 240.165 357.851 244.673C355.763 247.15 352.89 248.749 349.668 249.153C345.49 249.384 341.649 249.126 338.358 246.278C334.963 243.053 333.485 239.101 333.362 234.463C333.327 229.687 334.199 225.266 337.641 221.72C342.242 217.391 349.744 216.811 355.163 220.082ZM342.367 225.397C340.149 227.999 339.622 231.546 339.868 234.854C340.126 237.518 340.679 240.151 342.627 242.112C344.697 243.761 346.34 243.911 348.964 243.755C350.744 243.441 352.081 242.283 353.125 240.85C355.201 237.405 355.275 233.082 354.358 229.259C353.736 227.215 352.836 225.413 350.944 224.334C348.118 222.828 344.701 223.228 342.367 225.397Z" fill="#F7F7F7"/>
<path d="M230.649 220.93C231.987 222.176 232.917 223.896 233.26 225.683C233.26 226.147 233.26 226.612 233.26 227.091C231.169 227.091 229.078 227.091 226.924 227.091C226.691 226.394 226.459 225.697 226.22 224.979C224.985 223.689 223.747 223.285 221.98 223.234C219.326 223.224 219.326 223.224 217.067 224.509C216.459 225.485 216.362 226.367 216.362 227.502C216.649 228.432 216.957 228.928 217.771 229.438C220.091 230.5 222.466 231.003 224.959 231.473C227.834 232.045 230.792 232.918 232.699 235.282C233.943 237.158 234.223 239.202 233.964 241.407C233.396 244.063 231.736 246.146 229.484 247.618C227.653 248.584 225.486 249.331 223.403 249.387C223.152 249.399 222.9 249.41 222.64 249.423C218.624 249.527 214.697 248.865 211.654 246.028C210.014 244.229 209.567 242.634 209.087 240.234C211.178 240.234 213.269 240.234 215.424 240.234C215.733 241.008 216.043 241.783 216.362 242.581C217.407 243.712 218.919 244.237 220.438 244.325C220.791 244.331 221.144 244.331 221.496 244.326C221.681 244.325 221.866 244.323 222.056 244.321C223.834 244.272 225.296 243.974 226.586 242.683C227.192 241.657 227.278 240.699 227.158 239.53C226.769 238.458 226.134 238.129 225.131 237.645C224.155 237.245 223.143 237.043 222.112 236.831C221.653 236.73 221.194 236.63 220.735 236.529C220.295 236.434 219.854 236.339 219.413 236.244C215.812 235.466 212.535 234.5 210.391 231.276C209.401 229.271 209.51 226.656 209.929 224.502C210.692 222.28 212.367 220.688 214.397 219.595C219.486 217.28 226.117 217.437 230.649 220.93Z" fill="#F7F7F7"/>
<path d="M380.095 219.867C382.158 221.429 383.331 223.462 383.861 225.988C383.896 226.302 383.896 226.302 383.933 226.622C383.698 226.856 383.698 226.856 383.155 226.883C382.92 226.882 382.685 226.881 382.443 226.879C382.19 226.879 381.936 226.878 381.675 226.877C381.409 226.875 381.142 226.873 380.867 226.871C380.6 226.87 380.332 226.869 380.056 226.868C379.393 226.865 378.729 226.861 378.066 226.856C378.003 226.711 377.94 226.565 377.876 226.414C377.751 226.128 377.751 226.128 377.624 225.836C377.542 225.647 377.46 225.457 377.375 225.262C376.943 224.36 376.466 223.938 375.572 223.512C373.867 223.133 372.089 223.111 370.555 224.04C369.753 224.863 369.556 225.518 369.514 226.636C369.565 227.611 369.618 228.245 370.321 228.969C372.238 230.14 374.305 230.619 376.468 231.134C379.272 231.84 381.818 232.813 383.464 235.305C384.663 237.453 384.756 240.02 384.239 242.39C383.471 244.713 381.964 246.66 379.808 247.84C376.655 249.349 372.976 249.728 369.587 248.771C367.131 247.883 365.01 246.33 363.793 243.989C363.164 242.624 362.811 241.525 362.811 239.999C364.747 239.999 366.683 239.999 368.678 239.999C368.988 240.696 369.297 241.393 369.617 242.111C370.541 243.231 371.431 243.907 372.901 244.064C374.453 244.118 375.91 244.118 377.127 243.05C377.955 241.962 378.243 240.896 378.066 239.53C377.63 238.295 377.064 237.839 375.953 237.183C375.212 236.914 375.212 236.914 374.426 236.73C374.136 236.655 373.846 236.579 373.548 236.502C372.947 236.351 372.346 236.201 371.745 236.051C368.856 235.298 365.946 234.349 364.337 231.669C363.073 229.257 362.867 226.619 363.617 223.981C364.53 221.579 366.396 219.959 368.678 218.877C368.928 218.757 368.928 218.757 369.183 218.636C372.579 217.341 377.094 217.923 380.095 219.867Z" fill="#F7F7F7"/>
<path d="M114.855 204.782C115.869 205.612 116.839 206.476 117.791 207.376C118.001 207.569 118.212 207.762 118.429 207.96C120.18 209.62 121.481 211.417 122.719 213.478C122.805 213.621 122.892 213.764 122.981 213.911C126.98 220.65 128.074 229.177 126.3 236.778C124.916 242.155 122.337 247.211 118.495 251.264C118.34 251.264 118.185 251.264 118.025 251.264C118.025 251.419 118.025 251.574 118.025 251.733C113.303 256.748 106.169 259.722 99.3525 260.037C91.8266 260.236 84.8344 258.069 79.0662 253.142C78.8399 252.951 78.6136 252.76 78.3804 252.563C72.5433 247.46 68.8809 239.973 68.2702 232.254C68.113 228.912 68.2145 225.66 68.9743 222.397C69.0109 222.236 69.0474 222.075 69.085 221.909C70.8367 214.493 75.5052 207.94 81.9118 203.827C92.0643 197.884 105.202 197.377 114.855 204.782ZM91.2702 205.029C90.8428 205.145 90.8428 205.145 90.4066 205.263C84.1516 207.142 79.1916 211.594 76.1031 217.277C72.7261 223.724 72.3824 231.077 74.4795 238.005C76.5615 244.374 81.2832 249.613 87.1858 252.671C90.4903 254.305 93.8483 255.111 97.5336 255.093C97.8033 255.091 98.073 255.09 98.3508 255.088C104.977 254.994 110.421 252.196 115.098 247.635C120.668 241.751 122.253 234.658 122.057 226.766C121.97 225.005 121.631 223.363 121.076 221.693C121.026 221.54 120.976 221.388 120.924 221.231C118.662 214.628 113.988 209.481 107.772 206.379C102.743 204.014 96.6122 203.527 91.2702 205.029Z" fill="#7AEB51"/>
<path d="M123.071 216.647C123.586 217.845 124.287 219.525 124.714 220.754C124.812 221.02 125.553 221.301 125.653 221.575C126.437 223.839 124.806 222.733 124.949 225.096C122.002 222.621 126.142 229.268 126.153 229.437C126.578 237.14 123.59 245.582 118.495 251.264C114.776 255.221 111.576 256.074 106.291 257.718C106.153 257.644 106.17 258.565 106.028 258.488C105.957 258.621 105.308 258.52 105.235 258.657C98.7226 260.705 91.8298 259.652 85.6376 256.662C78.8695 253.233 73.6857 248.399 70.8521 241.407C70.7398 241.135 70.381 239.81 70.2653 239.529C67.452 232.353 67.6663 225.279 70.701 218.356C72.1097 215.41 73.7064 212.665 75.8922 210.225C75.8922 210.225 76.1061 209.983 76.2163 209.859C81.2058 204.326 88.3755 200.453 95.9643 199.983C107.723 199.735 117.94 205.667 123.071 216.647ZM105.117 204.208C104.685 204.103 103.095 203.259 102.653 203.152C96.234 201.774 89.1329 204.088 83.7602 207.493C77.778 211.416 73.9617 219.08 72.6123 226.034C71.5082 232.502 73.7215 239.477 77.5408 244.927C79.7148 247.912 81.6559 250.104 84.9337 251.851C85.1735 251.978 86.2121 252.658 86.4592 252.789C92.3808 255.878 98.855 256.818 105.117 255.136C112.784 252.747 117.472 246.245 120.954 239.372C121.693 237.817 122.153 236.244 122.435 234.544C122.461 234.389 122.487 234.234 122.513 234.075C123.566 227.32 123.041 220.29 118.964 214.652C115.599 210.213 110.552 205.472 105.117 204.208Z" fill="#7AEB51"/>
<path d="M99.7196 210.896C100.35 211.234 100.35 211.234 100.893 211.601C100.772 213.221 100.508 214.751 100.114 216.327C100.006 216.771 99.8992 217.216 99.792 217.661C99.6237 218.352 99.4544 219.042 99.2836 219.733C99.1177 220.406 98.9555 221.08 98.7937 221.754C98.7419 221.959 98.69 222.164 98.6367 222.375C98.3513 223.574 98.2836 224.474 98.5461 225.682C98.6769 225.684 98.8076 225.685 98.9423 225.686C100.302 225.701 101.661 225.721 103.02 225.744C103.527 225.752 104.035 225.758 104.542 225.764C105.271 225.771 106 225.784 106.728 225.797C106.956 225.798 107.183 225.8 107.417 225.801C107.629 225.806 107.84 225.811 108.058 225.815C108.244 225.818 108.43 225.821 108.622 225.823C109.228 225.94 109.445 226.131 109.811 226.621C109.762 227.557 109.387 228.182 108.875 228.95C108.73 229.169 108.585 229.388 108.436 229.614C108.28 229.846 108.124 230.078 107.963 230.317C107.64 230.806 107.317 231.294 106.993 231.782C106.833 232.023 106.674 232.263 106.509 232.51C105.901 233.427 105.303 234.35 104.707 235.275C104.499 235.597 104.291 235.92 104.083 236.242C103.982 236.398 103.881 236.554 103.777 236.714C103.477 237.179 103.176 237.644 102.874 238.108C102.669 238.425 102.463 238.743 102.257 239.06C102.103 239.297 102.103 239.297 101.947 239.539C101.273 240.58 100.604 241.624 99.9369 242.67C99.8537 242.8 99.7704 242.931 99.6847 243.065C99.271 243.714 98.8577 244.362 98.4451 245.011C96.1567 248.6 96.1567 248.6 95.3484 248.946C94.791 248.917 94.791 248.917 94.4017 248.63C93.8802 247.939 94.1016 247.332 94.2116 246.511C94.3855 245.492 94.6107 244.491 94.858 243.487C94.9642 243.042 95.0704 242.597 95.1765 242.152C95.3434 241.462 95.5109 240.771 95.6788 240.081C95.8419 239.407 96.0027 238.733 96.1634 238.06C96.214 237.855 96.2646 237.65 96.3168 237.439C96.586 236.307 96.7462 235.295 96.6686 234.131C96.3113 233.774 95.9905 233.862 95.492 233.856C95.2923 233.853 95.0925 233.849 94.8867 233.846C94.5607 233.842 94.5607 233.842 94.2281 233.839C93.7722 233.831 93.3163 233.823 92.8603 233.815C92.1382 233.804 91.4161 233.794 90.694 233.785C89.9993 233.775 89.3048 233.763 88.6102 233.751C88.3938 233.749 88.1774 233.747 87.9545 233.745C87.7532 233.741 87.552 233.737 87.3447 233.733C87.1677 233.73 86.9906 233.728 86.8083 233.726C86.3421 233.662 86.3421 233.662 85.638 233.192C85.3784 231.814 86.0496 230.958 86.7821 229.863C86.967 229.578 86.967 229.578 87.1556 229.287C87.5843 228.63 88.0186 227.977 88.4543 227.325C88.6214 227.075 88.7885 226.824 88.9607 226.566C90.2306 224.665 90.2306 224.665 90.8578 223.73C92.0784 221.91 93.2616 220.075 94.3897 218.196C95.2455 216.774 96.1538 215.392 97.0848 214.018C97.6461 213.186 98.1879 212.343 98.7212 211.492C99.0155 211.131 99.0155 211.131 99.7196 210.896Z" fill="#7AEB51"/>
<path d="M389.097 211.601C391.111 211.601 393.124 211.601 395.199 211.601C395.199 214.002 395.199 216.403 395.199 218.877C397.213 218.877 399.226 218.877 401.301 218.877C401.301 220.503 401.301 222.129 401.301 223.805C399.287 223.805 397.274 223.805 395.199 223.805C395.219 225.884 395.241 227.963 395.266 230.042C395.278 231.008 395.289 231.973 395.298 232.939C395.307 233.871 395.318 234.804 395.33 235.737C395.334 236.092 395.338 236.447 395.341 236.801C395.245 239.875 395.245 239.875 396.475 242.566C397.446 243.348 398.388 243.349 399.585 243.417C400.151 243.451 400.717 243.485 401.301 243.519C401.301 245.301 401.301 247.082 401.301 248.917C394.892 249.024 394.892 249.024 392.852 248.213C392.693 248.151 392.534 248.088 392.371 248.024C391.039 247.382 390.201 246.25 389.586 244.939C388.876 242.881 389.009 240.759 389.028 238.611C389.029 238.183 389.03 237.755 389.031 237.327C389.034 236.207 389.041 235.087 389.049 233.968C389.056 232.822 389.059 231.677 389.063 230.532C389.07 228.289 389.082 226.047 389.097 223.805C387.858 223.805 386.619 223.805 385.342 223.805C385.342 222.179 385.342 220.552 385.342 218.877C386.581 218.877 387.82 218.877 389.097 218.877C389.097 216.476 389.097 214.075 389.097 211.601Z" fill="#F7F7F7"/>
</svg>
